<svg width="104" height="22" viewBox="0 0 104 22" fill="none" xmlns="http://www.w3.org/2000/svg">
<rect width="103.827" height="19.8246" transform="translate(0.111328 0.753052)" fill="white"/>
<path d="M8.9772 2.90729C10.5913 2.90729 12.1693 3.38594 13.5114 4.28272C14.8535 5.17949 15.8995 6.45411 16.5172 7.94539C17.135 9.43667 17.2966 11.0776 16.9817 12.6608C16.6668 14.2439 15.8895 15.6981 14.7481 16.8395C13.6067 17.9808 12.1525 18.7581 10.5694 19.073C8.98625 19.3879 7.34529 19.2263 5.85401 18.6086C4.36273 17.9909 3.08812 16.9449 2.19134 15.6027C1.29457 14.2606 0.815918 12.6827 0.815918 11.0686L8.9772 11.0686L8.9772 2.90729Z" fill="#7D278A"/>
<path d="M0.111328 10.5647C0.111328 8.32008 1.00302 6.16734 2.59025 4.58011C4.17747 2.99289 6.33021 2.1012 8.57488 2.1012V10.5648L0.111328 10.5647Z" fill="#B416CD" fill-opacity="0.4"/>
<circle cx="8.97741" cy="11.0686" r="2.51891" fill="white"/>
<path d="M27.7157 17.6653H24.9636L21.872 8.80157H23.5161L26.2324 17.0219H26.4469L29.1632 8.80157H30.8072L27.7157 17.6653ZM35.4232 6.15675C35.4232 5.81126 35.5424 5.51937 35.7806 5.2811C36.0308 5.03092 36.3287 4.90582 36.6742 4.90582C37.0197 4.90582 37.3115 5.03092 37.5498 5.2811C37.8 5.51937 37.9251 5.81126 37.9251 6.15675C37.9251 6.50224 37.8 6.80008 37.5498 7.05027C37.3115 7.28854 37.0197 7.40768 36.6742 7.40768C36.3287 7.40768 36.0308 7.28854 35.7806 7.05027C35.5424 6.80008 35.4232 6.50224 35.4232 6.15675ZM32.8856 16.3786H35.9951V10.0882H33.2073V8.80157H37.389V16.3786H40.284V17.6653H32.8856V16.3786ZM44.7392 11.089C44.7392 11.5179 44.9179 11.8455 45.2753 12.0719C45.6446 12.2982 46.3117 12.4471 47.2767 12.5186C48.3132 12.602 49.0995 12.8522 49.6356 13.2692C50.1837 13.6742 50.4577 14.2699 50.4577 15.0562V15.1634C50.4577 15.5923 50.3683 15.9795 50.1896 16.325C50.0228 16.6586 49.7846 16.9445 49.4748 17.1828C49.177 17.4211 48.8076 17.5998 48.3668 17.7189C47.938 17.8499 47.4674 17.9155 46.9551 17.9155C46.2641 17.9155 45.6684 17.8261 45.168 17.6474C44.6796 17.4568 44.2686 17.2126 43.935 16.9147C43.6133 16.605 43.3691 16.2595 43.2023 15.8782C43.0355 15.4851 42.9402 15.0919 42.9164 14.6988L44.2388 14.3771C44.2983 15.0562 44.5604 15.6042 45.0251 16.0212C45.4897 16.4263 46.1092 16.6288 46.8836 16.6288C47.5388 16.6288 48.063 16.5037 48.4562 16.2535C48.8613 15.9914 49.0638 15.6281 49.0638 15.1634C49.0638 14.6631 48.8672 14.3056 48.4741 14.0912C48.0809 13.8768 47.4435 13.7398 46.5619 13.6802C45.5374 13.6087 44.7511 13.3704 44.203 12.9654C43.655 12.5603 43.381 11.9706 43.381 11.1962V11.089C43.381 10.672 43.4704 10.3086 43.6491 9.99888C43.8278 9.67722 44.066 9.40916 44.3639 9.19472C44.6736 8.98027 45.0191 8.81944 45.4004 8.71222C45.7816 8.60499 46.1807 8.55138 46.5977 8.55138C47.1814 8.55138 47.6937 8.63478 48.1345 8.80157C48.5753 8.95645 48.9447 9.16493 49.2425 9.42703C49.5403 9.67722 49.7667 9.9691 49.9216 10.3027C50.0884 10.6363 50.1956 10.9698 50.2432 11.3034L48.9208 11.6251C48.8613 11.0532 48.6289 10.6065 48.2239 10.2848C47.8307 9.96314 47.3125 9.80231 46.6692 9.80231C46.419 9.80231 46.1747 9.83209 45.9365 9.89166C45.7101 9.93932 45.5076 10.0168 45.3289 10.124C45.1502 10.2312 45.0072 10.3682 44.9 10.535C44.7928 10.6899 44.7392 10.8745 44.7392 11.089ZM59.4519 8.80157H60.8458V17.6653H59.4519V16.0569H59.2375C58.9516 16.6288 58.5763 17.0815 58.1117 17.4151C57.647 17.7487 57.0573 17.9155 56.3425 17.9155C55.854 17.9155 55.4013 17.8321 54.9843 17.6653C54.5793 17.5104 54.2278 17.2721 53.93 16.9505C53.6441 16.6288 53.4177 16.2297 53.2509 15.7532C53.096 15.2766 53.0186 14.7226 53.0186 14.0912V8.80157H54.4125V13.9125C54.4125 14.8418 54.6031 15.5208 54.9843 15.9497C55.3656 16.3786 55.9493 16.5931 56.7356 16.5931C57.5815 16.5931 58.2427 16.3071 58.7192 15.7353C59.2077 15.1515 59.4519 14.3771 59.4519 13.4121V8.80157ZM69.9473 14.5558H64.5862L63.6748 17.6653H62.0664L65.855 5.15601H68.6785L72.467 17.6653H70.8587L69.9473 14.5558ZM67.1595 5.79934L64.9972 13.1619H69.5363L67.374 5.79934H67.1595ZM73.5804 16.3786H76.7971V6.44268H73.6876V5.15601H78.191V16.3786H81.4077V17.6653H73.5804V16.3786ZM83.8077 16.3786H87.0244V6.44268H83.915V5.15601H88.4183V16.3786H91.635V17.6653H83.8077V16.3786ZM100.468 16.0569H100.254C99.968 16.6288 99.5927 17.0815 99.1281 17.4151C98.6635 17.7487 98.0738 17.9155 97.3589 17.9155C96.8705 17.9155 96.4178 17.8321 96.0008 17.6653C95.5957 17.5104 95.2443 17.2721 94.9464 16.9505C94.6605 16.6288 94.4342 16.2297 94.2674 15.7532C94.1125 15.2766 94.035 14.7226 94.035 14.0912V8.80157H95.4289V13.9125C95.4289 14.8418 95.6196 15.5208 96.0008 15.9497C96.382 16.3786 96.9658 16.5931 97.7521 16.5931C98.598 16.5931 99.2592 16.3071 99.7357 15.7353C100.224 15.1515 100.468 14.3771 100.468 13.4121V8.80157H101.862V19.8455C101.862 20.2505 101.731 20.5841 101.469 20.8462C101.219 21.1083 100.891 21.2394 100.486 21.2394H95.4289V19.9527H99.9859C100.308 19.9527 100.468 19.774 100.468 19.4166V16.0569Z" fill="#7D278A"/>
</svg>
