<svg width="18" height="18" viewBox="0 0 18 18" fill="none" xmlns="http://www.w3.org/2000/svg">
<path d="M8.9772 0.907291C10.5913 0.907291 12.1693 1.38594 13.5114 2.28272C14.8535 3.17949 15.8995 4.45411 16.5172 5.94539C17.135 7.43667 17.2966 9.07763 16.9817 10.6608C16.6668 12.2439 15.8895 13.6981 14.7481 14.8395C13.6067 15.9808 12.1525 16.7581 10.5694 17.073C8.98625 17.3879 7.34529 17.2263 5.85401 16.6086C4.36273 15.9909 3.08812 14.9449 2.19134 13.6027C1.29457 12.2606 0.815918 10.6827 0.815918 9.06857L8.9772 9.06857L8.9772 0.907291Z" fill="#7D278A"/>
<path d="M0.111328 8.56475C0.111328 6.32008 1.00302 4.16734 2.59025 2.58011C4.17747 0.99289 6.33021 0.101196 8.57488 0.101196V8.56475L0.111328 8.56475Z" fill="#B416CD" fill-opacity="0.4"/>
<circle cx="8.97741" cy="9.0686" r="2.51891" fill="white"/>
</svg>
